<svg width="26" height="22" viewBox="0 0 26 22" fill="none" xmlns="http://www.w3.org/2000/svg">
<path d="M18.1767 1.93402C16.95 1.93402 15.8253 2.29795 14.834 3.01571C13.8836 3.70383 13.2508 4.58029 12.8783 5.21761C12.5058 4.58024 11.873 3.70383 10.9226 3.01571C9.93129 2.29795 8.80662 1.93402 7.5799 1.93402C4.1566 1.93402 1.57504 4.55544 1.57504 8.0317C1.57504 11.7873 4.79572 14.3568 9.67141 18.2466C10.4994 18.9072 11.4379 19.656 12.4133 20.4546C12.5419 20.56 12.707 20.618 12.8783 20.618C13.0496 20.618 13.2148 20.56 13.3433 20.4546C14.3189 19.6559 15.2573 18.9072 16.0857 18.2462C20.9609 14.3568 24.1816 11.7873 24.1816 8.0317C24.1816 4.55544 21.6 1.93402 18.1767 1.93402Z" fill="white"/>
<path fill-rule="evenodd" clip-rule="evenodd" d="M14.2475 2.20573C15.4099 1.36413 16.7399 0.934021 18.1767 0.934021C22.1667 0.934021 25.1816 4.01767 25.1816 8.0317C25.1816 10.2387 24.2201 12.0464 22.7106 13.7516C21.2384 15.4147 19.1582 17.0742 16.7705 18.9792L16.7094 19.0279C16.7094 19.0279 16.7094 19.0279 16.7094 19.0279C15.8805 19.6893 14.9468 20.4342 13.9768 21.2284C13.6638 21.4848 13.273 21.618 12.8783 21.618C12.4835 21.618 12.0925 21.4847 11.7793 21.2279C10.8096 20.4341 9.87606 19.6892 9.04776 19.0283C9.04775 19.0283 9.04774 19.0283 9.04774 19.0283L8.9867 18.9796C6.59864 17.0744 4.51832 15.4148 3.04607 13.7516C1.53653 12.0464 0.575043 10.2387 0.575043 8.0317C0.575043 4.01767 3.58992 0.934021 7.5799 0.934021C9.0167 0.934021 10.3467 1.36413 11.5091 2.20573C12.0572 2.60259 12.5103 3.05014 12.8783 3.48708C13.2463 3.05014 13.6994 2.60259 14.2475 2.20573ZM13.4941 4.31402C13.2395 4.63641 13.0357 4.94835 12.8783 5.21761C12.7209 4.94834 12.5171 4.6364 12.2625 4.31402C11.9144 3.87332 11.4715 3.41312 10.9226 3.01571C9.93129 2.29795 8.80662 1.93402 7.5799 1.93402C4.1566 1.93402 1.57504 4.55544 1.57504 8.0317C1.57504 11.7873 4.79572 14.3568 9.67141 18.2466L9.67193 18.247C10.4998 18.9075 11.4381 19.6562 12.4133 20.4546C12.5419 20.56 12.707 20.618 12.8783 20.618C13.0496 20.618 13.2148 20.56 13.3433 20.4546C14.3189 19.6559 15.2573 18.9072 16.0857 18.2462C20.9609 14.3568 24.1816 11.7873 24.1816 8.0317C24.1816 4.55544 21.6 1.93402 18.1767 1.93402C16.95 1.93402 15.8253 2.29795 14.834 3.01571C14.2851 3.41311 13.8422 3.87333 13.4941 4.31402Z" fill="#2D2D2D"/>
</svg>
