<svg width="26" height="22" viewBox="0 0 26 22" fill="none" xmlns="http://www.w3.org/2000/svg">
<path d="M18.1767 1.93408C16.95 1.93408 15.8253 2.29801 14.834 3.01577C13.8836 3.70389 13.2508 4.58035 12.8783 5.21767C12.5058 4.58031 11.873 3.70389 10.9226 3.01577C9.93129 2.29801 8.80662 1.93408 7.5799 1.93408C4.1566 1.93408 1.57504 4.5555 1.57504 8.03176C1.57504 11.7873 4.79572 14.3568 9.67141 18.2467C10.4994 18.9073 11.4379 19.6561 12.4133 20.4546C12.5419 20.56 12.707 20.6181 12.8783 20.6181C13.0496 20.6181 13.2148 20.56 13.3433 20.4547C14.3189 19.656 15.2573 18.9072 16.0857 18.2463C20.9609 14.3568 24.1816 11.7873 24.1816 8.03176C24.1816 4.5555 21.6 1.93408 18.1767 1.93408Z" fill="#D01345"/>
<path fill-rule="evenodd" clip-rule="evenodd" d="M14.2475 2.20579C15.4099 1.36419 16.7399 0.934082 18.1767 0.934082C22.1667 0.934082 25.1816 4.01773 25.1816 8.03176C25.1816 10.2387 24.2201 12.0464 22.7106 13.7516C21.2384 15.4147 19.1582 17.0743 16.7705 18.9793L16.7094 19.028C16.7094 19.028 16.7094 19.028 16.7094 19.028C15.8805 19.6893 14.9468 20.4343 13.9768 21.2284C13.6638 21.4848 13.273 21.6181 12.8783 21.6181C12.4835 21.6181 12.0925 21.4847 11.7793 21.228C10.8096 20.4341 9.87606 19.6893 9.04776 19.0284C9.04775 19.0284 9.04774 19.0284 9.04774 19.0284L8.9867 18.9797C6.59864 17.0745 4.51832 15.4148 3.04607 13.7517C1.53653 12.0464 0.575043 10.2387 0.575043 8.03176C0.575043 4.01773 3.58992 0.934082 7.5799 0.934082C9.0167 0.934082 10.3467 1.36419 11.5091 2.20579C12.0572 2.60265 12.5103 3.0502 12.8783 3.48715C13.2463 3.0502 13.6994 2.60265 14.2475 2.20579ZM13.4941 4.31408C13.2395 4.63647 13.0357 4.94841 12.8783 5.21767C12.7209 4.9484 12.5171 4.63646 12.2625 4.31408C11.9144 3.87338 11.4715 3.41318 10.9226 3.01577C9.93129 2.29801 8.80662 1.93408 7.5799 1.93408C4.1566 1.93408 1.57504 4.5555 1.57504 8.03176C1.57504 11.7873 4.79572 14.3568 9.67141 18.2467L9.67193 18.2471C10.4998 18.9076 11.4381 19.6562 12.4133 20.4546C12.5419 20.56 12.707 20.6181 12.8783 20.6181C13.0496 20.6181 13.2148 20.56 13.3433 20.4547C14.3189 19.656 15.2573 18.9072 16.0857 18.2463C20.9609 14.3568 24.1816 11.7873 24.1816 8.03176C24.1816 4.5555 21.6 1.93408 18.1767 1.93408C16.95 1.93408 15.8253 2.29801 14.834 3.01577C14.2851 3.41317 13.8422 3.87339 13.4941 4.31408Z" fill="white"/>
</svg>
